<mxfile host="Electron" agent="Mozilla/5.0 (X11; Linux x86_64) AppleWebKit/537.36 (KHTML, like Gecko) draw.io/26.0.16 Chrome/132.0.6834.196 Electron/34.2.0 Safari/537.36" version="26.0.16">
  <diagram id="C5RBs43oDa-KdzZeNtuy" name="Page-1">
    <mxGraphModel dx="1674" dy="837" grid="1" gridSize="10" guides="1" tooltips="1" connect="1" arrows="1" fold="1" page="1" pageScale="1" pageWidth="827" pageHeight="1169" math="0" shadow="0">
      <root>
        <mxCell id="WIyWlLk6GJQsqaUBKTNV-0" />
        <mxCell id="WIyWlLk6GJQsqaUBKTNV-1" parent="WIyWlLk6GJQsqaUBKTNV-0" />
        <mxCell id="sSkJR9nUIrRK-KmC8M2a-9" style="edgeStyle=orthogonalEdgeStyle;rounded=0;orthogonalLoop=1;jettySize=auto;html=1;exitX=0;exitY=0.5;exitDx=0;exitDy=0;" edge="1" parent="WIyWlLk6GJQsqaUBKTNV-1" source="qVkOWVs69eYgjv4Qx2z5-2" target="sSkJR9nUIrRK-KmC8M2a-4">
          <mxGeometry relative="1" as="geometry" />
        </mxCell>
        <mxCell id="qVkOWVs69eYgjv4Qx2z5-13" style="edgeStyle=orthogonalEdgeStyle;rounded=0;orthogonalLoop=1;jettySize=auto;html=1;exitX=0.5;exitY=1;exitDx=0;exitDy=0;entryX=0.5;entryY=0;entryDx=0;entryDy=0;fontFamily=Helvetica;fontSize=12;fontColor=default;" parent="WIyWlLk6GJQsqaUBKTNV-1" source="qVkOWVs69eYgjv4Qx2z5-7" target="qVkOWVs69eYgjv4Qx2z5-8" edge="1">
          <mxGeometry relative="1" as="geometry" />
        </mxCell>
        <mxCell id="qVkOWVs69eYgjv4Qx2z5-7" value="&lt;font style=&quot;font-size: 11px;&quot;&gt;Nhap()&lt;/font&gt;" style="ellipse;whiteSpace=wrap;html=1;rounded=0;strokeColor=default;align=center;verticalAlign=middle;fontFamily=Helvetica;fontSize=12;fontColor=default;fillColor=light-dark(#86A788,var(--ge-dark-color, #121212));" parent="WIyWlLk6GJQsqaUBKTNV-1" vertex="1">
          <mxGeometry x="150" y="160" width="120" height="60" as="geometry" />
        </mxCell>
        <mxCell id="qVkOWVs69eYgjv4Qx2z5-15" style="edgeStyle=orthogonalEdgeStyle;rounded=0;orthogonalLoop=1;jettySize=auto;html=1;exitX=0.5;exitY=1;exitDx=0;exitDy=0;entryX=0.5;entryY=0;entryDx=0;entryDy=0;fontFamily=Helvetica;fontSize=12;fontColor=default;" parent="WIyWlLk6GJQsqaUBKTNV-1" source="qVkOWVs69eYgjv4Qx2z5-8" target="qVkOWVs69eYgjv4Qx2z5-14" edge="1">
          <mxGeometry relative="1" as="geometry" />
        </mxCell>
        <mxCell id="qVkOWVs69eYgjv4Qx2z5-8" value="&lt;font style=&quot;font-size: 11px;&quot;&gt;Nhập select&amp;nbsp;&lt;/font&gt;" style="shape=parallelogram;perimeter=parallelogramPerimeter;whiteSpace=wrap;html=1;fixedSize=1;rounded=0;strokeColor=default;align=center;verticalAlign=middle;fontFamily=Helvetica;fontSize=12;fontColor=default;fillColor=light-dark(#73C7C7,var(--ge-dark-color, #121212));" parent="WIyWlLk6GJQsqaUBKTNV-1" vertex="1">
          <mxGeometry x="150" y="260" width="120" height="60" as="geometry" />
        </mxCell>
        <mxCell id="qVkOWVs69eYgjv4Qx2z5-19" style="edgeStyle=orthogonalEdgeStyle;rounded=0;orthogonalLoop=1;jettySize=auto;html=1;exitX=0.5;exitY=1;exitDx=0;exitDy=0;entryX=0.5;entryY=0;entryDx=0;entryDy=0;fontFamily=Helvetica;fontSize=12;fontColor=default;" parent="WIyWlLk6GJQsqaUBKTNV-1" source="qVkOWVs69eYgjv4Qx2z5-14" target="qVkOWVs69eYgjv4Qx2z5-17" edge="1">
          <mxGeometry relative="1" as="geometry" />
        </mxCell>
        <mxCell id="qVkOWVs69eYgjv4Qx2z5-20" style="edgeStyle=orthogonalEdgeStyle;rounded=0;orthogonalLoop=1;jettySize=auto;html=1;fontFamily=Helvetica;fontSize=12;fontColor=default;" parent="WIyWlLk6GJQsqaUBKTNV-1" target="qVkOWVs69eYgjv4Qx2z5-18" edge="1">
          <mxGeometry relative="1" as="geometry">
            <mxPoint x="210" y="440" as="sourcePoint" />
          </mxGeometry>
        </mxCell>
        <mxCell id="qVkOWVs69eYgjv4Qx2z5-31" style="edgeStyle=orthogonalEdgeStyle;rounded=0;orthogonalLoop=1;jettySize=auto;html=1;exitX=0.5;exitY=1;exitDx=0;exitDy=0;fontFamily=Helvetica;fontSize=12;fontColor=default;" parent="WIyWlLk6GJQsqaUBKTNV-1" source="qVkOWVs69eYgjv4Qx2z5-14" target="qVkOWVs69eYgjv4Qx2z5-28" edge="1">
          <mxGeometry relative="1" as="geometry" />
        </mxCell>
        <mxCell id="qVkOWVs69eYgjv4Qx2z5-14" value="&lt;font style=&quot;font-size: 11px;&quot;&gt;switch (select)&lt;/font&gt;" style="rhombus;whiteSpace=wrap;html=1;rounded=0;strokeColor=default;align=center;verticalAlign=middle;fontFamily=Helvetica;fontSize=12;fontColor=default;fillColor=light-dark(#A6F1E0,var(--ge-dark-color, #121212));" parent="WIyWlLk6GJQsqaUBKTNV-1" vertex="1">
          <mxGeometry x="150" y="360" width="120" height="60" as="geometry" />
        </mxCell>
        <mxCell id="qVkOWVs69eYgjv4Qx2z5-16" style="edgeStyle=orthogonalEdgeStyle;rounded=0;orthogonalLoop=1;jettySize=auto;html=1;exitX=0.5;exitY=1;exitDx=0;exitDy=0;fontFamily=Helvetica;fontSize=12;fontColor=default;" parent="WIyWlLk6GJQsqaUBKTNV-1" source="qVkOWVs69eYgjv4Qx2z5-14" target="qVkOWVs69eYgjv4Qx2z5-14" edge="1">
          <mxGeometry relative="1" as="geometry" />
        </mxCell>
        <mxCell id="qVkOWVs69eYgjv4Qx2z5-24" style="edgeStyle=orthogonalEdgeStyle;rounded=0;orthogonalLoop=1;jettySize=auto;html=1;exitX=0.5;exitY=1;exitDx=0;exitDy=0;entryX=0.5;entryY=0;entryDx=0;entryDy=0;fontFamily=Helvetica;fontSize=12;fontColor=default;" parent="WIyWlLk6GJQsqaUBKTNV-1" source="qVkOWVs69eYgjv4Qx2z5-17" target="qVkOWVs69eYgjv4Qx2z5-22" edge="1">
          <mxGeometry relative="1" as="geometry" />
        </mxCell>
        <mxCell id="qVkOWVs69eYgjv4Qx2z5-17" value="case 1" style="rounded=0;whiteSpace=wrap;html=1;strokeColor=default;align=center;verticalAlign=middle;fontFamily=Helvetica;fontSize=12;fontColor=default;fillColor=light-dark(#F4F8D3,var(--ge-dark-color, #121212));" parent="WIyWlLk6GJQsqaUBKTNV-1" vertex="1">
          <mxGeometry x="70" y="460" width="120" height="60" as="geometry" />
        </mxCell>
        <mxCell id="qVkOWVs69eYgjv4Qx2z5-25" style="edgeStyle=orthogonalEdgeStyle;rounded=0;orthogonalLoop=1;jettySize=auto;html=1;exitX=0.5;exitY=1;exitDx=0;exitDy=0;entryX=0.5;entryY=0;entryDx=0;entryDy=0;fontFamily=Helvetica;fontSize=12;fontColor=default;" parent="WIyWlLk6GJQsqaUBKTNV-1" source="qVkOWVs69eYgjv4Qx2z5-18" target="qVkOWVs69eYgjv4Qx2z5-23" edge="1">
          <mxGeometry relative="1" as="geometry" />
        </mxCell>
        <mxCell id="qVkOWVs69eYgjv4Qx2z5-18" value="case 2" style="rounded=0;whiteSpace=wrap;html=1;strokeColor=default;align=center;verticalAlign=middle;fontFamily=Helvetica;fontSize=12;fontColor=default;fillColor=light-dark(#F4F8D3,#000000);" parent="WIyWlLk6GJQsqaUBKTNV-1" vertex="1">
          <mxGeometry x="230" y="460" width="120" height="60" as="geometry" />
        </mxCell>
        <mxCell id="qVkOWVs69eYgjv4Qx2z5-45" style="edgeStyle=orthogonalEdgeStyle;rounded=0;orthogonalLoop=1;jettySize=auto;html=1;exitX=0.5;exitY=1;exitDx=0;exitDy=0;entryX=0.5;entryY=0;entryDx=0;entryDy=0;fontFamily=Helvetica;fontSize=12;fontColor=default;" parent="WIyWlLk6GJQsqaUBKTNV-1" source="qVkOWVs69eYgjv4Qx2z5-22" target="qVkOWVs69eYgjv4Qx2z5-32" edge="1">
          <mxGeometry relative="1" as="geometry">
            <Array as="points">
              <mxPoint x="130" y="740" />
              <mxPoint x="290" y="740" />
            </Array>
          </mxGeometry>
        </mxCell>
        <mxCell id="qVkOWVs69eYgjv4Qx2z5-22" value="Nhập x" style="shape=parallelogram;perimeter=parallelogramPerimeter;whiteSpace=wrap;html=1;fixedSize=1;rounded=0;strokeColor=default;align=center;verticalAlign=middle;fontFamily=Helvetica;fontSize=12;fontColor=default;fillColor=light-dark(#73C7C7,#000000);" parent="WIyWlLk6GJQsqaUBKTNV-1" vertex="1">
          <mxGeometry x="70" y="565" width="120" height="55" as="geometry" />
        </mxCell>
        <mxCell id="qVkOWVs69eYgjv4Qx2z5-27" style="edgeStyle=orthogonalEdgeStyle;rounded=0;orthogonalLoop=1;jettySize=auto;html=1;exitX=0.5;exitY=1;exitDx=0;exitDy=0;entryX=0.5;entryY=0;entryDx=0;entryDy=0;fontFamily=Helvetica;fontSize=12;fontColor=default;" parent="WIyWlLk6GJQsqaUBKTNV-1" source="qVkOWVs69eYgjv4Qx2z5-23" target="qVkOWVs69eYgjv4Qx2z5-26" edge="1">
          <mxGeometry relative="1" as="geometry" />
        </mxCell>
        <mxCell id="qVkOWVs69eYgjv4Qx2z5-23" value="Nhập x" style="shape=parallelogram;perimeter=parallelogramPerimeter;whiteSpace=wrap;html=1;fixedSize=1;rounded=0;strokeColor=default;align=center;verticalAlign=middle;fontFamily=Helvetica;fontSize=12;fontColor=default;fillColor=light-dark(#73C7C7,#000000);" parent="WIyWlLk6GJQsqaUBKTNV-1" vertex="1">
          <mxGeometry x="230" y="560" width="120" height="60" as="geometry" />
        </mxCell>
        <mxCell id="qVkOWVs69eYgjv4Qx2z5-43" style="edgeStyle=orthogonalEdgeStyle;rounded=0;orthogonalLoop=1;jettySize=auto;html=1;exitX=0.5;exitY=1;exitDx=0;exitDy=0;entryX=0.5;entryY=0;entryDx=0;entryDy=0;fontFamily=Helvetica;fontSize=12;fontColor=default;" parent="WIyWlLk6GJQsqaUBKTNV-1" source="qVkOWVs69eYgjv4Qx2z5-26" target="qVkOWVs69eYgjv4Qx2z5-32" edge="1">
          <mxGeometry relative="1" as="geometry" />
        </mxCell>
        <mxCell id="qVkOWVs69eYgjv4Qx2z5-26" value="x *= pi/180" style="whiteSpace=wrap;html=1;rounded=0;strokeColor=default;align=center;verticalAlign=middle;fontFamily=Helvetica;fontSize=12;fontColor=default;fillColor=light-dark(#F4F8D3,#000000);" parent="WIyWlLk6GJQsqaUBKTNV-1" vertex="1">
          <mxGeometry x="230" y="660" width="120" height="60" as="geometry" />
        </mxCell>
        <mxCell id="qVkOWVs69eYgjv4Qx2z5-44" style="edgeStyle=orthogonalEdgeStyle;rounded=0;orthogonalLoop=1;jettySize=auto;html=1;exitX=0.5;exitY=1;exitDx=0;exitDy=0;entryX=0.5;entryY=0;entryDx=0;entryDy=0;fontFamily=Helvetica;fontSize=12;fontColor=default;" parent="WIyWlLk6GJQsqaUBKTNV-1" source="qVkOWVs69eYgjv4Qx2z5-28" target="qVkOWVs69eYgjv4Qx2z5-32" edge="1">
          <mxGeometry relative="1" as="geometry">
            <Array as="points">
              <mxPoint x="450" y="740" />
              <mxPoint x="290" y="740" />
            </Array>
          </mxGeometry>
        </mxCell>
        <mxCell id="qVkOWVs69eYgjv4Qx2z5-28" value="default" style="rounded=0;whiteSpace=wrap;html=1;strokeColor=default;align=center;verticalAlign=middle;fontFamily=Helvetica;fontSize=12;fontColor=default;fillColor=light-dark(#F4F8D3,#000000);" parent="WIyWlLk6GJQsqaUBKTNV-1" vertex="1">
          <mxGeometry x="390" y="460" width="120" height="60" as="geometry" />
        </mxCell>
        <mxCell id="qVkOWVs69eYgjv4Qx2z5-32" value="&lt;font style=&quot;font-size: 11px;&quot;&gt;Kết Thúc&lt;/font&gt;" style="ellipse;whiteSpace=wrap;html=1;fillColor=light-dark(#86A788,#000000);" parent="WIyWlLk6GJQsqaUBKTNV-1" vertex="1">
          <mxGeometry x="230" y="760" width="120" height="60" as="geometry" />
        </mxCell>
        <mxCell id="sSkJR9nUIrRK-KmC8M2a-4" value="" style="swimlane;startSize=0;" vertex="1" parent="WIyWlLk6GJQsqaUBKTNV-1">
          <mxGeometry x="50" y="140" width="480" height="700" as="geometry" />
        </mxCell>
        <mxCell id="sSkJR9nUIrRK-KmC8M2a-11" value="" style="swimlane;startSize=0;" vertex="1" parent="WIyWlLk6GJQsqaUBKTNV-1">
          <mxGeometry x="10" y="100" width="1080" height="780" as="geometry" />
        </mxCell>
        <mxCell id="NNOHxpy41D4RNwcs7YqX-10" style="edgeStyle=orthogonalEdgeStyle;rounded=0;orthogonalLoop=1;jettySize=auto;html=1;exitX=0.5;exitY=1;exitDx=0;exitDy=0;entryX=0.5;entryY=0;entryDx=0;entryDy=0;" parent="sSkJR9nUIrRK-KmC8M2a-11" source="NNOHxpy41D4RNwcs7YqX-1" edge="1">
          <mxGeometry relative="1" as="geometry">
            <mxPoint x="660" y="270" as="targetPoint" />
            <Array as="points">
              <mxPoint x="660" y="250" />
              <mxPoint x="660" y="250" />
            </Array>
          </mxGeometry>
        </mxCell>
        <mxCell id="NNOHxpy41D4RNwcs7YqX-1" value="&lt;font style=&quot;font-size: 11px;&quot;&gt;Bắt đầu&lt;/font&gt;" style="ellipse;whiteSpace=wrap;html=1;fillColor=light-dark(#86A788,#000000);" parent="sSkJR9nUIrRK-KmC8M2a-11" vertex="1">
          <mxGeometry x="600" y="170" width="120" height="60" as="geometry" />
        </mxCell>
        <mxCell id="TGARpY4S03guAWFJ-hCr-9" value="&lt;font style=&quot;font-size: 11px;&quot;&gt;Kết Thúc&lt;/font&gt;" style="ellipse;whiteSpace=wrap;html=1;fillColor=light-dark(#86A788,#000000);" parent="sSkJR9nUIrRK-KmC8M2a-11" vertex="1">
          <mxGeometry x="600" y="570" width="120" height="60" as="geometry" />
        </mxCell>
        <mxCell id="qVkOWVs69eYgjv4Qx2z5-5" style="edgeStyle=orthogonalEdgeStyle;rounded=0;orthogonalLoop=1;jettySize=auto;html=1;exitX=0.5;exitY=1;exitDx=0;exitDy=0;fontFamily=Helvetica;fontSize=12;fontColor=default;" parent="sSkJR9nUIrRK-KmC8M2a-11" source="qVkOWVs69eYgjv4Qx2z5-2" target="qVkOWVs69eYgjv4Qx2z5-4" edge="1">
          <mxGeometry relative="1" as="geometry" />
        </mxCell>
        <mxCell id="qVkOWVs69eYgjv4Qx2z5-2" value="&lt;font style=&quot;font-size: 11px;&quot;&gt;Nhap(x);&lt;/font&gt;" style="shape=process;whiteSpace=wrap;html=1;backgroundOutline=1;rounded=0;strokeColor=default;align=center;verticalAlign=middle;fontFamily=Helvetica;fontSize=12;fontColor=default;fillColor=light-dark(#FFCFCF,var(--ge-dark-color, #121212));" parent="sSkJR9nUIrRK-KmC8M2a-11" vertex="1">
          <mxGeometry x="600" y="270" width="120" height="60" as="geometry" />
        </mxCell>
        <mxCell id="qVkOWVs69eYgjv4Qx2z5-11" style="edgeStyle=orthogonalEdgeStyle;rounded=0;orthogonalLoop=1;jettySize=auto;html=1;exitX=0.5;exitY=1;exitDx=0;exitDy=0;entryX=0.5;entryY=0;entryDx=0;entryDy=0;fontFamily=Helvetica;fontSize=12;fontColor=default;" parent="sSkJR9nUIrRK-KmC8M2a-11" source="qVkOWVs69eYgjv4Qx2z5-4" target="qVkOWVs69eYgjv4Qx2z5-10" edge="1">
          <mxGeometry relative="1" as="geometry" />
        </mxCell>
        <mxCell id="qVkOWVs69eYgjv4Qx2z5-4" value="&lt;font style=&quot;font-size: 11px;&quot;&gt;&lt;font style=&quot;&quot;&gt;epsilon = 0.00001&lt;/font&gt;&lt;font style=&quot;&quot;&gt;;&lt;/font&gt;&lt;/font&gt;&lt;div&gt;&lt;font style=&quot;font-size: 11px;&quot;&gt;result = Sin(x, epsilon)&lt;/font&gt;&lt;/div&gt;" style="rounded=0;whiteSpace=wrap;html=1;strokeColor=default;align=center;verticalAlign=middle;fontFamily=Helvetica;fontSize=12;fontColor=default;fillColor=light-dark(#F4F8D3,#000000);" parent="sSkJR9nUIrRK-KmC8M2a-11" vertex="1">
          <mxGeometry x="600" y="370" width="120" height="60" as="geometry" />
        </mxCell>
        <mxCell id="qVkOWVs69eYgjv4Qx2z5-12" style="edgeStyle=orthogonalEdgeStyle;rounded=0;orthogonalLoop=1;jettySize=auto;html=1;exitX=0.5;exitY=1;exitDx=0;exitDy=0;fontFamily=Helvetica;fontSize=12;fontColor=default;" parent="sSkJR9nUIrRK-KmC8M2a-11" source="qVkOWVs69eYgjv4Qx2z5-10" edge="1">
          <mxGeometry relative="1" as="geometry">
            <mxPoint x="659.7241379310345" y="570" as="targetPoint" />
          </mxGeometry>
        </mxCell>
        <mxCell id="qVkOWVs69eYgjv4Qx2z5-10" value="&lt;font style=&quot;font-size: 11px;&quot;&gt;Xuất kết quả&lt;br&gt;Sin(x) = ...&lt;/font&gt;" style="shape=parallelogram;perimeter=parallelogramPerimeter;whiteSpace=wrap;html=1;fixedSize=1;rounded=0;strokeColor=default;align=center;verticalAlign=middle;fontFamily=Helvetica;fontSize=12;fontColor=default;fillColor=light-dark(#73C7C7,#000000);" parent="sSkJR9nUIrRK-KmC8M2a-11" vertex="1">
          <mxGeometry x="600" y="470" width="120" height="60" as="geometry" />
        </mxCell>
        <mxCell id="qVkOWVs69eYgjv4Qx2z5-49" style="edgeStyle=orthogonalEdgeStyle;rounded=0;orthogonalLoop=1;jettySize=auto;html=1;exitX=0.5;exitY=1;exitDx=0;exitDy=0;entryX=0.5;entryY=0;entryDx=0;entryDy=0;fontFamily=Helvetica;fontSize=12;fontColor=default;" parent="sSkJR9nUIrRK-KmC8M2a-11" source="qVkOWVs69eYgjv4Qx2z5-47" target="qVkOWVs69eYgjv4Qx2z5-48" edge="1">
          <mxGeometry relative="1" as="geometry" />
        </mxCell>
        <mxCell id="qVkOWVs69eYgjv4Qx2z5-47" value="&lt;font style=&quot;font-size: 11px;&quot;&gt;Sin(x, epsilon)&lt;/font&gt;" style="ellipse;whiteSpace=wrap;html=1;rounded=0;strokeColor=default;align=center;verticalAlign=middle;fontFamily=Helvetica;fontSize=12;fontColor=default;fillColor=light-dark(#86A788,#000000);" parent="sSkJR9nUIrRK-KmC8M2a-11" vertex="1">
          <mxGeometry x="860" y="160" width="120" height="60" as="geometry" />
        </mxCell>
        <mxCell id="qVkOWVs69eYgjv4Qx2z5-59" style="edgeStyle=orthogonalEdgeStyle;rounded=0;orthogonalLoop=1;jettySize=auto;html=1;exitX=0.5;exitY=1;exitDx=0;exitDy=0;entryX=0.5;entryY=0;entryDx=0;entryDy=0;fontFamily=Helvetica;fontSize=12;fontColor=default;" parent="sSkJR9nUIrRK-KmC8M2a-11" source="qVkOWVs69eYgjv4Qx2z5-48" target="qVkOWVs69eYgjv4Qx2z5-51" edge="1">
          <mxGeometry relative="1" as="geometry" />
        </mxCell>
        <mxCell id="qVkOWVs69eYgjv4Qx2z5-48" value="&lt;font style=&quot;font-size: 11px;&quot;&gt;term = x&lt;/font&gt;&lt;div&gt;&lt;font style=&quot;font-size: 11px;&quot;&gt;sum = x&lt;/font&gt;&lt;/div&gt;&lt;div&gt;&lt;font style=&quot;font-size: 11px;&quot;&gt;n = 1&lt;/font&gt;&lt;/div&gt;" style="rounded=0;whiteSpace=wrap;html=1;strokeColor=default;align=center;verticalAlign=middle;fontFamily=Helvetica;fontSize=12;fontColor=default;fillColor=light-dark(#F4F8D3,#000000);" parent="sSkJR9nUIrRK-KmC8M2a-11" vertex="1">
          <mxGeometry x="860" y="260" width="120" height="60" as="geometry" />
        </mxCell>
        <mxCell id="qVkOWVs69eYgjv4Qx2z5-56" style="edgeStyle=orthogonalEdgeStyle;rounded=0;orthogonalLoop=1;jettySize=auto;html=1;exitX=0.5;exitY=1;exitDx=0;exitDy=0;entryX=0.5;entryY=0;entryDx=0;entryDy=0;fontFamily=Helvetica;fontSize=12;fontColor=default;" parent="sSkJR9nUIrRK-KmC8M2a-11" source="qVkOWVs69eYgjv4Qx2z5-51" target="qVkOWVs69eYgjv4Qx2z5-55" edge="1">
          <mxGeometry relative="1" as="geometry" />
        </mxCell>
        <mxCell id="qVkOWVs69eYgjv4Qx2z5-64" style="edgeStyle=orthogonalEdgeStyle;rounded=0;orthogonalLoop=1;jettySize=auto;html=1;exitX=1;exitY=0.5;exitDx=0;exitDy=0;fontFamily=Helvetica;fontSize=12;fontColor=default;entryX=1;entryY=0.5;entryDx=0;entryDy=0;" parent="sSkJR9nUIrRK-KmC8M2a-11" source="qVkOWVs69eYgjv4Qx2z5-51" target="qVkOWVs69eYgjv4Qx2z5-62" edge="1">
          <mxGeometry relative="1" as="geometry">
            <mxPoint x="1020" y="580" as="targetPoint" />
            <Array as="points">
              <mxPoint x="1020" y="390" />
              <mxPoint x="1020" y="610" />
            </Array>
          </mxGeometry>
        </mxCell>
        <mxCell id="qVkOWVs69eYgjv4Qx2z5-51" value="&lt;font style=&quot;font-size: 11px;&quot;&gt;fabs(term) &amp;gt;= epsilon&lt;/font&gt;" style="rhombus;whiteSpace=wrap;html=1;rounded=0;strokeColor=default;align=center;verticalAlign=middle;fontFamily=Helvetica;fontSize=12;fontColor=default;fillColor=light-dark(#A6F1E0,#000000);" parent="sSkJR9nUIrRK-KmC8M2a-11" vertex="1">
          <mxGeometry x="860" y="360" width="120" height="60" as="geometry" />
        </mxCell>
        <mxCell id="qVkOWVs69eYgjv4Qx2z5-53" style="edgeStyle=orthogonalEdgeStyle;rounded=0;orthogonalLoop=1;jettySize=auto;html=1;exitX=0.5;exitY=1;exitDx=0;exitDy=0;fontFamily=Helvetica;fontSize=12;fontColor=default;" parent="sSkJR9nUIrRK-KmC8M2a-11" source="qVkOWVs69eYgjv4Qx2z5-51" target="qVkOWVs69eYgjv4Qx2z5-51" edge="1">
          <mxGeometry relative="1" as="geometry" />
        </mxCell>
        <mxCell id="qVkOWVs69eYgjv4Qx2z5-54" style="edgeStyle=orthogonalEdgeStyle;rounded=0;orthogonalLoop=1;jettySize=auto;html=1;exitX=0.5;exitY=1;exitDx=0;exitDy=0;fontFamily=Helvetica;fontSize=12;fontColor=default;" parent="sSkJR9nUIrRK-KmC8M2a-11" source="qVkOWVs69eYgjv4Qx2z5-51" target="qVkOWVs69eYgjv4Qx2z5-51" edge="1">
          <mxGeometry relative="1" as="geometry" />
        </mxCell>
        <mxCell id="qVkOWVs69eYgjv4Qx2z5-58" style="edgeStyle=orthogonalEdgeStyle;rounded=0;orthogonalLoop=1;jettySize=auto;html=1;exitX=0.5;exitY=1;exitDx=0;exitDy=0;entryX=0;entryY=0.5;entryDx=0;entryDy=0;fontFamily=Helvetica;fontSize=12;fontColor=default;" parent="sSkJR9nUIrRK-KmC8M2a-11" source="qVkOWVs69eYgjv4Qx2z5-55" target="qVkOWVs69eYgjv4Qx2z5-51" edge="1">
          <mxGeometry relative="1" as="geometry">
            <Array as="points">
              <mxPoint x="920" y="560" />
              <mxPoint x="820" y="560" />
              <mxPoint x="820" y="390" />
            </Array>
          </mxGeometry>
        </mxCell>
        <mxCell id="qVkOWVs69eYgjv4Qx2z5-55" value="&lt;font style=&quot;font-size: 11px;&quot;&gt;term *=&amp;nbsp;-x&lt;/font&gt;&lt;div&gt;&lt;font style=&quot;font-size: 11px;&quot;&gt;* x/((2*n) *(2*n +1));&lt;/font&gt;&lt;div&gt;&lt;font style=&quot;font-size: 11px;&quot;&gt;sum += term;&lt;/font&gt;&lt;/div&gt;&lt;div&gt;&lt;font style=&quot;font-size: 11px;&quot;&gt;n++;&lt;/font&gt;&lt;/div&gt;&lt;/div&gt;" style="rounded=0;whiteSpace=wrap;html=1;strokeColor=default;align=center;verticalAlign=middle;fontFamily=Helvetica;fontSize=12;fontColor=default;fillColor=light-dark(#F4F8D3,#000000);" parent="sSkJR9nUIrRK-KmC8M2a-11" vertex="1">
          <mxGeometry x="860" y="460" width="120" height="60" as="geometry" />
        </mxCell>
        <mxCell id="qVkOWVs69eYgjv4Qx2z5-62" value="return sum;&amp;nbsp;" style="ellipse;whiteSpace=wrap;html=1;rounded=0;strokeColor=default;align=center;verticalAlign=middle;fontFamily=Helvetica;fontSize=12;fontColor=default;fillColor=light-dark(#86A788,#000000);" parent="sSkJR9nUIrRK-KmC8M2a-11" vertex="1">
          <mxGeometry x="860" y="580" width="120" height="60" as="geometry" />
        </mxCell>
        <mxCell id="sSkJR9nUIrRK-KmC8M2a-5" value="" style="swimlane;startSize=0;" vertex="1" parent="sSkJR9nUIrRK-KmC8M2a-11">
          <mxGeometry x="800" y="140" width="240" height="520" as="geometry" />
        </mxCell>
        <mxCell id="sSkJR9nUIrRK-KmC8M2a-10" style="edgeStyle=orthogonalEdgeStyle;rounded=0;orthogonalLoop=1;jettySize=auto;html=1;exitX=1;exitY=0.5;exitDx=0;exitDy=0;entryX=0;entryY=0.5;entryDx=0;entryDy=0;" edge="1" parent="sSkJR9nUIrRK-KmC8M2a-11" source="qVkOWVs69eYgjv4Qx2z5-4" target="sSkJR9nUIrRK-KmC8M2a-5">
          <mxGeometry relative="1" as="geometry" />
        </mxCell>
      </root>
    </mxGraphModel>
  </diagram>
</mxfile>
